HIERARCHY
ROOT hip
{
	OFFSET 0 8.8639 0.137
	CHANNELS 6 Xposition Yposition Zposition Xrotation Yrotation Zrotation
	JOINT lThigh
	{
		OFFSET 0.9546499848365784 -0.4106999933719635 0.22007499635219574
		CHANNELS 3 Xrotation Yrotation Zrotation
		JOINT lShin
		{
			OFFSET -0.1510230004787445 -3.947200059890747 0.24548299610614777
			CHANNELS 3 Xrotation Yrotation Zrotation
			JOINT lFoot
			{
				OFFSET -0.23033000528812408 -3.8476099967956543 -0.2681879997253418
				CHANNELS 3 Xrotation Yrotation Zrotation
				End Site
				{
					OFFSET -0.23033000528812408 -3.8476099967956543 -0.2681879997253418
				}
			}
		}
	}
	JOINT rThigh
	{
		OFFSET -0.9546499848365784 -0.4106999933719635 0.22007499635219574
		CHANNELS 3 Xrotation Yrotation Zrotation
		JOINT rShin
		{
			OFFSET 0.1275240033864975 -3.936609983444214 0.3876039981842041
			CHANNELS 3 Xrotation Yrotation Zrotation
			JOINT rFoot
			{
				OFFSET 0.20697300136089325 -3.856100082397461 -0.129379004240036
				CHANNELS 3 Xrotation Yrotation Zrotation
				End Site
				{
					OFFSET 0.20697300136089325 -3.856100082397461 -0.129379004240036
				}
			}
		}
	}
	JOINT abdomen
	{
		OFFSET 0 0.8220499753952026 -0.13744999468326569
		CHANNELS 3 Xrotation Yrotation Zrotation
		JOINT chest
		{
			OFFSET 0 0.911050021648407 0.1221499964594841
			CHANNELS 3 Xrotation Yrotation Zrotation
			JOINT rCollar
			{
				OFFSET -0.3122999966144562 2.2781999111175537 0.7447999715805054
				CHANNELS 3 Xrotation Yrotation Zrotation
				JOINT rShldr
				{
					OFFSET -1.1588300466537476 0.10809499770402908 -0.7240409851074219
					CHANNELS 3 Xrotation Yrotation Zrotation
					JOINT rForeArm
					{
						OFFSET -2.3922300338745117 -0.13170099258422852 -0.3336620032787323
						CHANNELS 3 Xrotation Yrotation Zrotation
						JOINT rHand
						{
							OFFSET -2.175950050354004 0.072815902531147 -0.13184599578380585
							CHANNELS 3 Xrotation Yrotation Zrotation
							End Site
							{
								OFFSET -2.175950050354004 0.072815902531147 -0.13184599578380585
							}
						}
					}
				}
			}
			JOINT lCollar
			{
				OFFSET 0.3122999966144562 2.2781999111175537 0.7447999715805054
				CHANNELS 3 Xrotation Yrotation Zrotation
				JOINT lShldr
				{
					OFFSET 1.1588300466537476 0.10809499770402908 -0.7240409851074219
					CHANNELS 3 Xrotation Yrotation Zrotation
					JOINT lForeArm
					{
						OFFSET 2.3922300338745117 -0.13170099258422852 -0.33363500237464905
						CHANNELS 3 Xrotation Yrotation Zrotation
						JOINT lHand
						{
							OFFSET 2.175950050354004 0.07284550368785858 -0.13182300329208374
							CHANNELS 3 Xrotation Yrotation Zrotation
							End Site
							{
								OFFSET 2.175950050354004 0.07284550368785858 -0.13182300329208374
							}
						}
					}
				}
			}
			JOINT neck
			{
				OFFSET 4.656610097519831e-10 2.98009991645813 -0.13339999318122864
				CHANNELS 3 Xrotation Yrotation Zrotation
				JOINT head
				{
					OFFSET -4.656610097519831e-10 1.146399974822998 0.12995000183582306
					CHANNELS 3 Xrotation Yrotation Zrotation
					End Site
					{
						OFFSET -4.656610097519831e-10 1.146399974822998 0.12995000183582306
					}
				}
			}
		}
	}
}
MOTION
Frames: 8
Frame Time: 0.25
0 1.8463134843216267e-7 -5.4836273299940785e-9 0 0 0 0 0 0 0 0 0 0 0 0 0 0 0 0 0 0 0 0 0 0 0 0 0 0 0 0 0 0 0.22230972374344646 -0.08188846566995511 80.9797954759737 0.025145954807074888 0 0.07359240152732713 0 0 0 0 0 0 0.22230972374344646 0.08188846566995511 -80.9797954759737 0.025145954807074888 0 -0.07359240152732713 0 0 0 0 0 0 0 0 0
0 -0.008857542419432818 0.02514880347251891 -5 0 -12 -2.2473431482630066 -0.265502589127822 -6.07675799807544 0 0 0 30 -10 9 19.810384877884637 -4.860210501498214 23.55753530713086 0.009666877689814578 0 0 0 0 0 0 0 0 0 3 15 0 0 0 -71 25 112 0 126 0 4 16 -33 0 0 0 -27 -77 -100 0 -63 0 7 -11 0 0 0 0 0 0 -6
0 -0.018857771301268755 0.01514879810810088 -9 -13 -12 -22 -19 -8 62 0 0 30 -10 9 20.791874253822513 -5.223040785430412 6.159198333208888 0.05511569304800458 0 0 0 0 0 0 0 0 0 3 18 0 0 0 -1 16 78 0 135 0 -36 -4 31 0 0 0 -4.283166163820302 2.0507281815011313 -91.83211540201792 0 -0.1767740177495022 0 7 -11 0 0 0 -9 9 10 0
0 -0.008857542419432818 0.02514880347251891 -5 0 3 19.810384877884637 4.860210501498214 -23.55753530713086 0.009666877689814578 0 0 30 -10 9 -2.2473431482630066 0.265502589127822 6.07675799807544 0 0 0 19 -2 0 0 0 0 0 4 -6 0 0 -12 70 54 16 0 81.06528513015034 0 12 36 -48 0 0 0 4 -1 -82 0 -25.000000000000004 0 9 15 15 0 0 0 0 0 -6
0 -0.018857771301268755 0.01514879810810088 -9 -13 -33 -27 0 37 71 0 0 30 -10 9 20 -5 30 0.05511569304800458 0 0 0 0 0 -2 0 18 0 3 9 0 0 0 53.28944634471905 24.660570910543377 43.00000000000001 0 74.58196404023587 0 0 0 3 0 3.71146916444762 0 3 2 -85 0 0 0 7 -11 0 0 0 12 9 12 3
0 -0.018857771301268755 0.01514879810810088 -9 -13 6 20 5 -9 0.05511569304800458 0 0 30 -10 9 -27 0 -19 71 0 0 0 0 0 -2 0 18 0 3 -36 0 0 0 47.29174593681683 27.66734624829572 53 0 103 0 0 0 3 0 0 0 3.696273719160223 2.3890879121944235 -71.65991449576046 0 -0.00005931472423580315 0 7 -11 -3 0 0 12 9 12 3
0 -0.018857771301268755 0.01514879810810088 -3 -13 0 -15 -23 -17 16.49587308024503 0 0 31 3 -6 14 -1 0 0.0254470608171454 0 0 0 0 0 -2 0 18 0 3 -27 0 0 0 47.29174593681683 27.66734624829572 53 0 103 0 -23 2 -3 0 0 0 2.5249622208038582 -73.8885086450619 -71.97141845096148 0 0 0 7 -11 -3 0 0 12 1 8 -3
0 -0.008857542419432818 0.02514880347251891 -5 0 0 17.141672856892022 0.12557555632572984 -0.12198533851318596 0.00000508403635567482 0 0 30 -10 9 -2.8982639735906544 -24.916036571443694 -1.8683168929935292 0 0 0 19 -2 0 0 0 -6 0 4 -18 0 -2.071455355293732 0 -1 0 92 0 0.092721522168331 0 0 0 0 0 0 27 22 -42 -73 0 -65 0 0 0 0 0 0 21 0 0 0
